<?xml version="1.0" encoding="utf-8"?>
<!-- Generator: Adobe Illustrator 21.1.0, SVG Export Plug-In . SVG Version: 6.00 Build 0)  -->
<svg version="1.1" id="Layer_1" xmlns="http://www.w3.org/2000/svg" xmlns:xlink="http://www.w3.org/1999/xlink" x="0px" y="0px"
	 viewBox="0 0 45 40" style="enable-background:new 0 0 45 40;" xml:space="preserve">
<style type="text/css">
	.st0{opacity:0.6;}
	.st1{fill:#A88D53;}
</style>
<g class="st0">
	<g>
		<path class="st1" d="M41.6,20c0,4,0,8.1,0,12.1c0,2.4-1,3.9-3.2,5.1c-1.6,0.9-3.1,1.3-4.8,1.3c-6.8,0-13.6,0-20.3,0
			c-3.6,0-6-1.7-7.6-4.8c-0.5-1-0.4-1.8-0.4-2.7c0-7.3,0-14.5-0.1-21.8c0-2.1,0.6-3.7,2-5.3c1.6-1.7,3.4-2.6,5.7-2.6
			c4.6,0,9.3,0,13.9,0c2.7,0,5.5-0.3,8.2,0.1c2.6,0.3,4.9,1.3,6.2,4c0.4,0.8,0.4,1.5,0.4,2.3C41.6,11.9,41.6,16,41.6,20z M25.2,26.6
			c0-1.2,0-2.4,0-3.6c0-2.8,0.7-3.3,3.3-3c1.2,0.1,2.3,1.5,2.4,3.3c0.1,1.5,0,3.1,0,4.6c0.1,1.4-0.7,3.4,0.3,4
			c1.1,0.7,3,0.2,4.5,0.2c0.5,0,0.9-0.2,0.9-0.8c-0.1-3.9,0.4-7.9-0.7-11.8c-0.3-1.1-2.8-3.8-3.8-3.8c-2.1-0.1-4.2-0.4-6,0.9
			c-0.7,0.5-0.9,0.6-0.9-0.3c0-0.4-0.2-0.6-0.7-0.6c-1.4,0-2.8,0-4.3,0c-0.7,0-0.7,0.4-0.7,0.9c0,4.9,0,9.7,0,14.6
			c0,0.8,0.4,1,1.1,0.9c1.5-0.2,3,0.3,4.5-0.2c0-1.4,0.1-2.8,0.1-4.2C25.2,27.4,25.2,27,25.2,26.6z M16.6,24c0-1.3,0.1-2.6,0-3.9
			c-0.1-1.4,0.7-3.3-0.3-4c-0.9-0.7-2.7-0.1-4.1-0.3c-1.2-0.1-1.3,0.5-1.3,1.5c0,3.9,0,7.8,0,11.7c0,3.2,0,3.2,3.4,3.2
			c2.3,0,2.3,0,2.3-2.2C16.6,28,16.6,26,16.6,24z M13.5,7.9c-1.7,0-3.1,1.2-3.3,2.7c-0.1,1.3,2,3,3.7,3c1.5,0,2.7-1.4,2.7-2.9
			C16.6,9.1,15.3,7.9,13.5,7.9z"/>
	</g>
</g>
</svg>
