<?xml version="1.0" encoding="utf-8"?>
<!-- Generator: Adobe Illustrator 21.1.0, SVG Export Plug-In . SVG Version: 6.00 Build 0)  -->
<svg version="1.1" id="Layer_1" xmlns="http://www.w3.org/2000/svg" xmlns:xlink="http://www.w3.org/1999/xlink" x="0px" y="0px"
	 viewBox="0 0 45 40" style="enable-background:new 0 0 45 40;" xml:space="preserve">
<style type="text/css">
	.st0{opacity:0.6;fill:#A88D53;}
</style>
<g>
	<path class="st0" d="M23.1,0.6C12.4,0.6,3.7,9.3,3.7,20c0,8.2,5.1,15.3,12.4,18c-0.1-1.6-0.4-3.9,0.1-5.6c0.4-1.5,2.3-9.7,2.3-9.7
		s-0.6-1.2-0.6-2.9c0-2.7,1.6-4.7,3.5-4.7c1.7,0,2.4,1.2,2.4,2.8c0,1.7-1.1,4.1-1.6,6.4c-0.5,1.9,1,3.5,2.9,3.5
		c3.4,0,6.1-3.6,6.1-8.8c0-4.6-3.4-7.9-8.1-7.9c-5.6,0-8.7,4.1-8.7,8.4c0,1.7,0.6,3.4,1.5,4.5c0.1,0.2,0.1,0.4,0.1,0.6
		c-0.1,0.6-0.5,1.9-0.5,2.2c-0.2,0.4-0.5,0.5-0.8,0.2c-2.4-1.1-3.9-4.7-3.9-7.5c0-6.1,4.5-11.7,12.8-11.7c6.8,0,12,4.8,12,11.1
		c0,6.7-4.2,12.1-10.1,12.1c-1.9,0-3.8-1-4.5-2.2c0,0-1,3.8-1.2,4.6c-0.5,1.7-1.6,3.8-2.4,5.1c1.8,0.6,3.8,0.8,5.7,0.8
		c10.7,0,19.4-8.7,19.4-19.4S33.7,0.6,23.1,0.6z"/>
</g>
</svg>
