<?xml version="1.0" encoding="utf-8"?>
<!-- Generator: Adobe Illustrator 21.1.0, SVG Export Plug-In . SVG Version: 6.00 Build 0)  -->
<svg version="1.1" id="Layer_1" xmlns="http://www.w3.org/2000/svg" xmlns:xlink="http://www.w3.org/1999/xlink" x="0px" y="0px"
	 viewBox="0 0 45 40" style="enable-background:new 0 0 45 40;" xml:space="preserve">
<style type="text/css">
	.st0{opacity:0.6;fill:#A88D53;}
</style>
<g>
	<path id="White_10_" class="st0" d="M40.3,0.6H4.7c-0.8,0-1.6,0.7-1.6,1.6v35.5c0,1,0.7,1.7,1.6,1.7h19V24.8h-4.8v-6.1h4.8v-4.8
		c0-5,3.1-7.5,7.6-7.5c2.2,0,4,0.2,4.5,0.2v5.2h-3.1c-2.4,0-3,1.2-3,2.9v4h6.1l-1.2,6.1h-4.8l0.1,14.5h10.4c0.8,0,1.6-0.7,1.6-1.6
		V2.2C41.9,1.3,41.2,0.6,40.3,0.6z"/>
</g>
</svg>
