<?xml version="1.0" encoding="utf-8"?>
<!-- Generator: Adobe Illustrator 21.1.0, SVG Export Plug-In . SVG Version: 6.00 Build 0)  -->
<svg version="1.1" id="Layer_1" xmlns="http://www.w3.org/2000/svg" xmlns:xlink="http://www.w3.org/1999/xlink" x="0px" y="0px"
	 viewBox="0 0 45 40" style="enable-background:new 0 0 45 40;" xml:space="preserve">
<style type="text/css">
	.st0{opacity:0.6;fill:#A88D53;}
</style>
<g>
	<path class="st0" d="M42.6,15.3c0,6,0.1,11.7,0,17.3c0,2.6-0.8,3.3-3.4,3.3C28,36,16.8,36,5.7,36c-2.3,0-3.3-0.8-3.3-2.9
		c-0.1-5.8,0-11.6,0-17.9c4.9,3.3,9.2,6.5,13.8,9.3c7,4.3,5.5,4.6,12.9-0.1c3.6-2.2,6.9-4.8,10.4-7.2C40.3,16.5,41.3,16.1,42.6,15.3
		z"/>
	<path class="st0" d="M22.5,24.9c-2.4-1.6-4.4-3-6.5-4.4c-3.6-2.4-7.3-4.9-10.8-7.3c-1.8-1.2-2.7-3-2.8-5.2C2.1,5,3,4,6.1,4
		c11,0,22,0,33,0c3,0,4,1.1,3.5,4.1c-0.3,1.6-0.9,3.6-2.1,4.4C34.8,16.7,28.9,20.6,22.5,24.9z"/>
</g>
</svg>
