<?xml version="1.0" encoding="utf-8"?>
<!-- Generator: Adobe Illustrator 21.1.0, SVG Export Plug-In . SVG Version: 6.00 Build 0)  -->
<svg version="1.1" id="Layer_1" xmlns="http://www.w3.org/2000/svg" xmlns:xlink="http://www.w3.org/1999/xlink" x="0px" y="0px"
	 viewBox="0 0 45 40" style="enable-background:new 0 0 45 40;" xml:space="preserve">
<style type="text/css">
	.st0{opacity:0.6;}
	.st1{fill:#A88D53;}
</style>
<g class="st0">
	<g>
		<path class="st1" d="M37.4,0.6H7.8c-2.5,0-4.6,2.1-4.6,4.6v29.5c0,2.5,2.1,4.6,4.6,4.6h29.5c2.5,0,4.6-2.1,4.6-4.6V5.2
			C42,2.7,39.9,0.6,37.4,0.6z M32.3,5.5h3.6c0.7,0,1.2,0.5,1.2,1.2v3.6c0,0.7-0.5,1.2-1.2,1.2h-3.6c-0.7,0-1.2-0.5-1.2-1.2V6.7
			C31.1,6,31.6,5.5,32.3,5.5z M22.6,12.6c4.1,0,7.5,3.3,7.5,7.4s-3.4,7.4-7.5,7.4s-7.5-3.3-7.5-7.4C15.2,15.9,18.5,12.6,22.6,12.6z
			 M37.2,35.7H8.1c-0.7,0-1.2-0.5-1.2-1.2V16.4h4.8c-0.6,1-0.8,2.5-0.8,3.6c0,6.5,5.3,11.7,11.7,11.7c6.5,0,11.7-5.3,11.7-11.7
			c0-1.1-0.1-2.8-1-3.6h4.8v18.2C38.4,35.3,37.9,35.7,37.2,35.7z"/>
	</g>
</g>
</svg>
